<svg xmlns="http://www.w3.org/2000/svg" fill="none" viewBox="0 0 24 24" height="24" width="24"><g clip-path="url(#clip0_6973_61990)"><path fill="white" d="M12.5 2V12.31C14.77 12.67 16.5 14.63 16.5 17C16.5 19.62 14.37 21.75 11.75 21.75C9.13 21.75 7 19.62 7 17C7 14.63 8.73 12.67 11 12.31V5.75H7.75V4.25H11V2H12.5ZM15 17C15 15.21 13.54 13.75 11.75 13.75C9.96 13.75 8.5 15.21 8.5 17C8.5 18.79 9.96 20.25 11.75 20.25C13.54 20.25 15 18.79 15 17Z" clip-rule="evenodd" fill-rule="evenodd"/></g><defs><clipPath id="clip0_6973_61990"><rect transform="translate(7 2)" fill="white" height="19.75" width="9.5"/></clipPath></defs></svg>