<svg xmlns="http://www.w3.org/2000/svg" fill="none" viewBox="0 0 24 24" height="24" width="24"><path fill="white" d="M15.5 12C15.5 13.3807 16.6193 14.5 18 14.5C19.3807 14.5 20.5 13.3807 20.5 12C20.5 10.6193 19.3807 9.5 18 9.5C16.6193 9.5 15.5 10.6193 15.5 12ZM14 12C14 14.2091 15.7909 16 18 16C20.2091 16 22 14.2091 22 12C22 9.79086 20.2091 8 18 8C15.7909 8 14 9.79086 14 12Z" clip-rule="evenodd" fill-rule="evenodd"/><path fill="white" d="M9.5 6C9.5 7.38071 10.6193 8.5 12 8.5C13.3807 8.5 14.5 7.38071 14.5 6C14.5 4.61929 13.3807 3.5 12 3.5C10.6193 3.5 9.5 4.61929 9.5 6ZM8 6C8 8.20914 9.79086 10 12 10C14.2091 10 16 8.20914 16 6C16 3.79086 14.2091 2 12 2C9.79086 2 8 3.79086 8 6Z" clip-rule="evenodd" fill-rule="evenodd"/><path fill="white" d="M9.5 18C9.5 19.3807 10.6193 20.5 12 20.5C13.3807 20.5 14.5 19.3807 14.5 18C14.5 16.6193 13.3807 15.5 12 15.5C10.6193 15.5 9.5 16.6193 9.5 18ZM8 18C8 20.2091 9.79086 22 12 22C14.2091 22 16 20.2091 16 18C16 15.7909 14.2091 14 12 14C9.79086 14 8 15.7909 8 18Z" clip-rule="evenodd" fill-rule="evenodd"/><path fill="white" d="M3.5 12C3.5 13.3807 4.61929 14.5 6 14.5C7.38071 14.5 8.5 13.3807 8.5 12C8.5 10.6193 7.38071 9.5 6 9.5C4.61929 9.5 3.5 10.6193 3.5 12ZM2 12C2 14.2091 3.79086 16 6 16C8.20914 16 10 14.2091 10 12C10 9.79086 8.20914 8 6 8C3.79086 8 2 9.79086 2 12Z" clip-rule="evenodd" fill-rule="evenodd"/></svg>