<svg xmlns="http://www.w3.org/2000/svg" fill="none" viewBox="0 0 24 24" height="24" width="24"><g clip-path="url(#clip0_6973_62000)"><path fill="white" d="M20.39 7.18958C20.08 6.02958 19.91 5.38958 19.47 4.89958C19.08 4.46958 18.57 4.16958 18 4.04958C17.35 3.90958 16.72 4.07958 15.56 4.38958L13.19 5.02958L13.58 6.47958L15.95 5.83958C16.54 5.67958 16.95 5.57958 17.25 5.52958L13.2 13.3396L8.86 11.1696C8.5 10.9896 8.06 11.1296 7.86 11.4896L4 18.6496L5.32 19.3596L8.83 12.8396L13.18 15.0096C13.55 15.1896 13.99 15.0496 14.18 14.6796L18.55 6.26958C18.67 6.55958 18.78 6.97958 18.94 7.56958L19.58 9.93958L21.03 9.54958L20.39 7.17958V7.18958Z"/></g><defs><clipPath id="clip0_6973_62000"><rect transform="translate(4 4)" fill="white" height="15.36" width="17.03"/></clipPath></defs></svg>