<svg xmlns="http://www.w3.org/2000/svg" fill="none" viewBox="0 0 24 24" height="24" width="24"><path stroke-width="1.125" stroke="#01001F" d="M18 11.625V5.25C18 4.42157 17.3284 3.75 16.5 3.75H6.75C5.92157 3.75 5.25 4.42157 5.25 5.25V18C5.25 18.8284 5.92157 19.5 6.75 19.5H11.625"/><path stroke-linecap="round" stroke-width="1.125" stroke="#01001F" d="M9 7.5H14.25"/><path stroke-linecap="round" stroke-width="1.125" stroke="#01001F" d="M9 10.5H14.25"/><path stroke-linecap="round" stroke-width="1.125" stroke="#01001F" d="M9 13.5H11.25"/><path stroke-linejoin="round" stroke-linecap="round" stroke-width="1.125" stroke="#01001F" d="M18.75 15.2308C18.3219 14.8356 17.5679 14.5607 16.875 14.5435M16.875 14.5435C16.0506 14.523 15.3125 14.8673 15.3125 15.8077C15.3125 17.5385 18.75 16.6731 18.75 18.4038C18.75 19.391 17.8351 19.8151 16.875 19.7833M16.875 14.5435V13.5M15 18.9808C15.4028 19.4765 16.1518 19.7593 16.875 19.7833M16.875 19.7833V21"/></svg>