<?xml version="1.0" standalone="no"?>
<!DOCTYPE svg PUBLIC "-//W3C//DTD SVG 20010904//EN"
 "http://www.w3.org/TR/2001/REC-SVG-20010904/DTD/svg10.dtd">
<svg version="1.0" xmlns="http://www.w3.org/2000/svg"
 width="699.000000pt" height="699.000000pt" viewBox="0 0 699.000000 699.000000"
 preserveAspectRatio="xMidYMid meet">
<metadata>
Created by potrace 1.11, written by Peter Selinger 2001-2013
</metadata>
<g transform="translate(0.000000,699.000000) scale(0.100000,-0.100000)"
fill="#000000" stroke="none">
<path d="M3444 6966 c-21 -12 -133 -78 -249 -146 -115 -68 -254 -149 -308
-180 -72 -42 -94 -60 -85 -67 11 -9 125 -74 399 -231 250 -143 1355 -777 1417
-813 45 -27 85 -49 87 -49 3 0 33 -17 67 -38 35 -21 70 -41 78 -44 19 -6 19
32 19 -1361 1 -620 4 -1126 9 -1124 367 214 649 382 657 392 7 8 11 418 13
1243 l3 1230 -208 122 c-114 68 -226 133 -248 145 -22 12 -76 44 -120 70 -44
26 -237 140 -430 253 -192 113 -465 272 -605 355 -140 82 -275 161 -300 175
-25 14 -61 35 -80 47 -73 45 -73 45 -116 21z"/>
<path d="M2505 6434 c-33 -20 -74 -45 -90 -54 -42 -24 -589 -344 -760 -445
-283 -167 -1022 -600 -1092 -639 l-73 -41 0 -423 0 -424 33 20 c17 11 46 28
64 39 18 10 117 68 219 128 103 61 208 122 233 136 25 14 134 78 241 141 107
63 231 136 275 162 44 25 87 50 95 55 8 5 137 80 285 167 149 87 337 198 418
246 82 48 153 88 158 88 5 0 9 5 9 10 0 6 5 10 11 10 6 0 23 9 38 19 l27 20
95 -56 c51 -31 108 -64 124 -73 17 -9 109 -63 205 -120 96 -56 189 -110 205
-120 17 -9 95 -55 175 -102 80 -46 201 -117 270 -157 69 -40 132 -76 140 -81
13 -8 192 -112 245 -142 11 -7 146 -86 300 -176 154 -90 286 -167 292 -169 18
-7 9 827 -9 839 -72 44 -2047 1172 -2058 1175 -8 2 -42 -13 -75 -33z"/>
<path d="M5778 5658 c-2 -7 -4 -555 -3 -1218 l0 -1205 -25 -16 c-14 -9 -45
-27 -70 -41 -25 -14 -135 -78 -245 -143 -110 -65 -263 -154 -340 -200 -77 -45
-154 -90 -172 -101 -18 -10 -293 -172 -612 -359 -319 -187 -581 -342 -581
-345 0 -5 59 -42 140 -88 19 -10 139 -80 266 -155 128 -75 236 -138 241 -139
6 -2 137 71 292 162 155 91 298 174 319 186 20 11 127 74 237 139 110 65 214
125 230 135 17 9 161 94 320 187 160 94 306 179 325 190 19 11 80 47 135 80
55 33 130 76 167 97 37 21 71 43 75 49 4 6 7 546 8 1200 l1 1188 -96 57 c-52
31 -104 62 -115 68 -100 56 -123 69 -145 84 -14 9 -32 20 -40 23 -8 4 -22 11
-30 17 -24 16 -271 160 -275 160 -1 0 -5 -6 -7 -12z"/>
<path d="M2555 5381 c-8 -7 -507 -300 -645 -378 -19 -11 -156 -91 -304 -178
-148 -86 -283 -165 -300 -175 -17 -9 -137 -79 -266 -155 -129 -76 -251 -147
-270 -157 -134 -76 -248 -143 -262 -156 -15 -13 -17 -105 -17 -1211 l-2 -1197
112 -65 c61 -35 128 -74 148 -86 20 -13 43 -26 50 -30 8 -4 102 -57 208 -119
l193 -112 1 36 c0 20 1 571 2 1225 l2 1187 35 22 c19 11 50 29 68 39 75 43
112 65 427 249 182 106 344 200 360 210 17 9 221 128 455 265 234 136 439 255
455 264 58 32 245 143 245 146 0 2 -137 84 -185 110 -11 6 -122 71 -246 143
-124 73 -233 132 -240 132 -8 0 -19 -4 -24 -9z"/>
<path d="M2090 4067 c-14 -8 -131 -76 -260 -152 -129 -76 -244 -143 -255 -149
-99 -56 -136 -79 -140 -85 -3 -6 -9 -2312 -6 -2443 1 -23 16 -35 109 -89 59
-35 121 -71 137 -80 17 -9 55 -31 85 -49 58 -35 439 -257 675 -395 77 -44 350
-204 606 -353 l466 -272 164 96 c90 53 178 105 194 114 191 110 365 214 365
219 -1 5 -150 94 -279 166 -20 11 -47 28 -61 36 -22 15 -953 557 -1040 607
-19 11 -190 110 -379 221 -189 110 -346 201 -350 201 -4 0 -6 544 -6 1210 0
665 0 1210 0 1210 0 0 -11 -6 -25 -13z"/>
<path d="M6420 2541 c-36 -21 -127 -75 -202 -119 -75 -45 -151 -90 -170 -100
-78 -45 -1116 -657 -1148 -677 -19 -12 -129 -77 -245 -145 -115 -67 -226 -132
-245 -145 l-36 -22 -89 53 c-50 30 -96 57 -104 61 -8 3 -98 56 -200 116 -102
61 -211 125 -241 142 -88 51 -571 335 -1010 593 -223 131 -407 237 -409 235
-2 -1 -4 -176 -5 -388 l-1 -386 385 -226 c212 -124 394 -231 405 -237 11 -6
31 -19 45 -27 14 -9 153 -92 310 -184 157 -91 292 -171 300 -176 112 -68 665
-389 671 -389 5 0 49 25 99 55 50 30 92 55 95 55 2 0 41 23 87 51 46 29 99 61
118 72 34 19 349 204 402 236 14 9 73 43 129 76 56 33 119 70 138 81 20 12
223 131 451 266 228 135 442 261 475 280 l60 36 0 426 c1 234 1 426 0 426 0 0
-29 -17 -65 -39z"/>
</g>
</svg>
