<svg xmlns="http://www.w3.org/2000/svg" fill="none" viewBox="0 0 32 32" height="32" width="32"><g opacity="0.3"><path stroke-linejoin="round" stroke-linecap="square" stroke-width="1.5" stroke="#01001F" d="M4 16L28 16"/><path stroke-linejoin="round" stroke-linecap="square" stroke-width="1.5" stroke="#01001F" d="M4 26C4 26 9 24 16 24C23 24 28 26 28 26"/><path stroke-linejoin="round" stroke-linecap="square" stroke-width="1.5" stroke="#01001F" d="M4 6C4 6 9 8 16 8C23 8 28 6 28 6"/><path stroke-linejoin="round" stroke-linecap="square" stroke-width="1.5" stroke="#01001F" d="M4 11C4 11 9 12 16 12C23 12 28 11 28 11"/><path stroke-linejoin="round" stroke-linecap="square" stroke-width="1.5" stroke="#01001F" d="M4 21C4 21 9 20 16 20C23 20 28 21 28 21"/></g></svg>