<svg xmlns="http://www.w3.org/2000/svg" fill="none" viewBox="0 0 32 32" height="32" width="32"><g opacity="0.3"><path stroke-width="1.5" stroke="#01001F" d="M15.9974 28.7974C23.3612 28.7974 29.3307 24.7381 29.3307 19.7307C29.3307 14.7233 23.3612 10.6641 15.9974 10.6641C8.63361 10.6641 2.66406 14.7233 2.66406 19.7307C2.66406 24.7381 8.63361 28.7974 15.9974 28.7974Z"/><path stroke-width="1.5" stroke="#01001F" d="M15.9974 21.3307C23.3612 21.3307 29.3307 17.152 29.3307 11.9974C29.3307 6.8427 23.3612 2.66406 15.9974 2.66406C8.63361 2.66406 2.66406 6.8427 2.66406 11.9974C2.66406 17.152 8.63361 21.3307 15.9974 21.3307Z"/><path stroke-width="1.5" stroke="#01001F" d="M16.001 25.063C22.7757 25.063 28.2677 21.0037 28.2677 15.9963C28.2677 10.9889 22.7757 6.92969 16.001 6.92969C9.22636 6.92969 3.73437 10.9889 3.73437 15.9963C3.73437 21.0037 9.22636 25.063 16.001 25.063Z"/></g></svg>