<svg xmlns="http://www.w3.org/2000/svg" fill="none" viewBox="0 0 32 32" height="32" width="32"><g opacity="0.3"><path stroke-linejoin="round" stroke-linecap="square" stroke-width="1.5" stroke="#01001F" d="M10 10L25.4 10"/><g clip-path="url(#clip0_7888_52418)"><path stroke-width="1.5" stroke="#01001F" d="M21.7031 16.75L25.6579 11.9831C26.2434 11.2774 26.5361 10.9245 26.648 10.5309C26.7467 10.1838 26.7467 9.81616 26.648 9.46911C26.5361 9.0755 26.2434 8.72263 25.6579 8.01689L21.7031 3.25"/></g><path stroke-linejoin="round" stroke-linecap="square" stroke-width="1.5" stroke="#01001F" d="M21.6016 22H6.20156"/><g clip-path="url(#clip1_7888_52418)"><path stroke-width="1.5" stroke="#01001F" d="M10.2969 15.25L6.34212 20.0169C5.75662 20.7226 5.46387 21.0755 5.35195 21.4691C5.25328 21.8162 5.25328 22.1838 5.35195 22.5309C5.46387 22.9245 5.75662 23.2774 6.34212 23.9831L10.2969 28.75"/></g></g><defs><clipPath id="clip0_7888_52418"><rect transform="translate(21 16) rotate(-90)" fill="white" height="7" width="12"/></clipPath><clipPath id="clip1_7888_52418"><rect transform="translate(11 16) rotate(90)" fill="white" height="7" width="12"/></clipPath></defs></svg>