<svg xmlns="http://www.w3.org/2000/svg" fill="none" viewBox="0 0 32 32" height="32" width="32"><g opacity="0.3"><path stroke-width="1.5" stroke="#01001F" d="M15.7346 23.4693C22.9512 23.4693 28.8013 21.2008 28.8013 18.4026C28.8013 15.6044 22.9512 13.3359 15.7346 13.3359C8.51813 13.3359 2.66797 15.6044 2.66797 18.4026C2.66797 21.2008 8.51813 23.4693 15.7346 23.4693Z"/><path stroke-width="1.5" stroke="#01001F" d="M16.0013 18.6646C23.3651 18.6646 29.3346 16.3962 29.3346 13.5979C29.3346 10.7997 23.3651 8.53125 16.0013 8.53125C8.63752 8.53125 2.66797 10.7997 2.66797 13.5979C2.66797 16.3962 8.63752 18.6646 16.0013 18.6646Z"/><path stroke-width="1.5" stroke="#01001F" d="M10.6654 15.9974C10.6654 23.3612 13.0532 29.3307 15.9987 29.3307C18.9442 29.3307 21.332 23.3612 21.332 15.9974C21.332 8.63361 18.9442 2.66406 15.9987 2.66406C13.0532 2.66406 10.6654 8.63361 10.6654 15.9974Z"/></g></svg>