<svg xmlns="http://www.w3.org/2000/svg" fill="none" viewBox="0 0 32 32" height="32" width="32"><g opacity="0.3"><path stroke-width="1.5" stroke="#01001F" d="M15.9974 26.6688C23.3612 26.6688 29.3307 24.1615 29.3307 21.0687C29.3307 17.976 23.3612 15.4688 15.9974 15.4688C8.63361 15.4688 2.66406 17.976 2.66406 21.0687C2.66406 24.1615 8.63361 26.6688 15.9974 26.6688Z"/><path stroke-width="1.5" stroke="#01001F" d="M15.9974 21.8661C23.3612 21.8661 29.3307 19.2395 29.3307 15.9995C29.3307 12.7594 23.3612 10.1328 15.9974 10.1328C8.63361 10.1328 2.66406 12.7594 2.66406 15.9995C2.66406 19.2395 8.63361 21.8661 15.9974 21.8661Z"/><path stroke-width="1.5" stroke="#01001F" d="M15.9974 17.0693C23.3612 17.0693 29.3307 14.4427 29.3307 11.2026C29.3307 7.96253 23.3612 5.33594 15.9974 5.33594C8.63361 5.33594 2.66406 7.96253 2.66406 11.2026C2.66406 14.4427 8.63361 17.0693 15.9974 17.0693Z"/></g></svg>