<svg xmlns="http://www.w3.org/2000/svg" fill="none" viewBox="0 0 32 32" height="32" width="32"><g opacity="0.3"><path stroke-linejoin="round" stroke-linecap="square" stroke-width="1.5" stroke="#01001F" d="M4 16L28 16"/><path stroke-linejoin="round" stroke-linecap="square" stroke-width="1.5" stroke="#01001F" d="M16 3V12.0588"/><g clip-path="url(#clip0_7888_52321)"><path stroke-width="1.5" stroke="#01001F" d="M10.1719 8.17969L13.932 11.522C14.6621 12.171 15.0271 12.4955 15.4391 12.6187C15.802 12.7273 16.1888 12.7273 16.5517 12.6187C16.9637 12.4955 17.3287 12.171 18.0588 11.522L21.8189 8.17969"/></g><path stroke-linejoin="round" stroke-linecap="square" stroke-width="1.5" stroke="#01001F" d="M16 29L16 19.9412"/><g clip-path="url(#clip1_7888_52321)"><path stroke-width="1.5" stroke="#01001F" d="M21.8281 23.8203L18.068 20.478C17.3379 19.829 16.9729 19.5045 16.5609 19.3813C16.198 19.2727 15.8112 19.2727 15.4483 19.3813C15.0363 19.5045 14.6713 19.829 13.9412 20.478L10.1811 23.8203"/></g></g><defs><clipPath id="clip0_7888_52321"><rect transform="translate(10.8203 7.53125)" fill="white" height="6.47059" width="10.3529"/></clipPath><clipPath id="clip1_7888_52321"><rect transform="translate(21.1797 24.4688) rotate(-180)" fill="white" height="6.47059" width="10.3529"/></clipPath></defs></svg>