<svg xmlns="http://www.w3.org/2000/svg" fill="none" viewBox="0 0 32 32" height="32" width="32"><g opacity="0.3"><path stroke-width="1.5" stroke="#01001F" d="M15.7307 23.4693C22.9472 23.4693 28.7974 21.2008 28.7974 18.4026C28.7974 15.6044 22.9472 13.3359 15.7307 13.3359C8.51422 13.3359 2.66406 15.6044 2.66406 18.4026C2.66406 21.2008 8.51422 23.4693 15.7307 23.4693Z"/><path stroke-width="1.5" stroke="#01001F" d="M15.9974 18.6646C23.3612 18.6646 29.3307 16.3962 29.3307 13.5979C29.3307 10.7997 23.3612 8.53125 15.9974 8.53125C8.63361 8.53125 2.66406 10.7997 2.66406 13.5979C2.66406 16.3962 8.63361 18.6646 15.9974 18.6646Z"/><path stroke-width="1.5" stroke="#01001F" d="M10.6693 15.9974C10.6693 23.3612 13.0571 29.3307 16.0026 29.3307C18.9481 29.3307 21.3359 23.3612 21.3359 15.9974C21.3359 8.63361 18.9481 2.66406 16.0026 2.66406C13.0571 2.66406 10.6693 8.63361 10.6693 15.9974Z"/></g></svg>