<svg xmlns="http://www.w3.org/2000/svg" fill="none" viewBox="0 0 32 32" height="32" width="32"><rect fill="#FF7613" rx="8" height="32" width="32"/><path stroke-linejoin="round" stroke-linecap="square" stroke-width="1.125" stroke="white" d="M7 16L25 16"/><path stroke-linejoin="round" stroke-linecap="square" stroke-width="1.125" stroke="white" d="M7 23.5C7 23.5 10.75 22 16 22C21.25 22 25 23.5 25 23.5"/><path stroke-linejoin="round" stroke-linecap="square" stroke-width="1.125" stroke="white" d="M7 8.5C7 8.5 10.75 10 16 10C21.25 10 25 8.5 25 8.5"/><path stroke-linejoin="round" stroke-linecap="square" stroke-width="1.125" stroke="white" d="M7 12.25C7 12.25 10.75 13 16 13C21.25 13 25 12.25 25 12.25"/><path stroke-linejoin="round" stroke-linecap="square" stroke-width="1.125" stroke="white" d="M7 19.75C7 19.75 10.75 19 16 19C21.25 19 25 19.75 25 19.75"/></svg>